<svg id="Layer_1" data-name="Layer 1" xmlns="http://www.w3.org/2000/svg" viewBox="0 0 167.9 26.37"><defs><style>.cls-1{fill:#333;}.cls-2{fill:#2071b9;}</style></defs><title>LOGO__HORIZONTAL_LAST</title><path class="cls-1" d="M29.84,52.26a.63.63,0,0,0-.89,0L26.13,55a.63.63,0,0,0,0,.89l2.78,2.83a.63.63,0,0,0,.89,0L32.62,56a.63.63,0,0,0,0-.89L39.89,48c.67-.66,1.18-.6,1.66-.12.69.68,6.29,6.31,6.74,6.79.8.86.4,1.51-.29,2.19l-6.58,6.5c-.55.56-.94.45-1.5,0a3.16,3.16,0,0,1-.3-.28L36.8,65.78l2.41,2.45a2.16,2.16,0,0,0,2.8,0l1.75-1.64s8.2-8.12,9.33-9.31a2.07,2.07,0,0,0,.21-2.91l-.48-.54L42.17,43.06a2.14,2.14,0,0,0-2.8-.06c-.65.61-9.53,9.26-9.53,9.26" transform="translate(-16.2 -42.37)"/><path class="cls-2" d="M40.16,58.89a.63.63,0,0,0,.89,0l2.83-2.78a.63.63,0,0,0,0-.88l-2.78-2.83a.63.63,0,0,0-.89,0l-2.82,2.78a.63.63,0,0,0,0,.88l-7.44,7.28a1,1,0,0,1-1.49,0c-.35-.35-5.9-5.93-6.74-6.79-.66-.68-.57-1.33.28-2.19.68-.68,6.58-6.5,6.58-6.5.55-.56,1-.47,1.36-.14l.44.42,2.83-2.75-2.5-2.52a2,2,0,0,0-2.71.09l-1.75,1.64S18,52.7,16.91,53.9a2.07,2.07,0,0,0-.21,2.91l.48.54L27.83,68.09a2.14,2.14,0,0,0,2.8.06c.65-.61,9.53-9.26,9.53-9.26" transform="translate(-16.2 -42.37)"/><path class="cls-1" d="M64.28,55.41V42.79h2.36V55.41Z" transform="translate(-16.2 -42.37)"/><path class="cls-1" d="M78.26,42.77h2.38V55.41H79.16v0L72.52,46.9v8.52H70.14V42.79h1.93l6.19,7.83Z" transform="translate(-16.2 -42.37)"/><path class="cls-1" d="M87.17,45h-4V42.79H93.56V45h-4V55.41H87.17Z" transform="translate(-16.2 -42.37)"/><path class="cls-1" d="M105.5,55.41H96V42.79h9.45v2.31H98.41V48h6.84v2.22H98.41v2.85h7.09Z" transform="translate(-16.2 -42.37)"/><path class="cls-1" d="M117.81,45.87a4.84,4.84,0,0,0-3.21-1.26c-2.71,0-4.35,2.06-4.35,4.65a4,4,0,0,0,4.35,4.22,4.2,4.2,0,0,0,2.85-1V50.24h-3.23V48.11h5.41v5.32a6.29,6.29,0,0,1-5,2.27c-4.75,0-6.68-3.12-6.68-6.44,0-3.55,2.22-6.84,6.68-6.84a6.67,6.67,0,0,1,4.69,1.93Z" transform="translate(-16.2 -42.37)"/><path class="cls-1" d="M133.69,55.41h-2.83l-3.68-4.22h-2.29v4.22H122.5V42.77l6,0c3,0,4.55,2,4.55,4.19a3.75,3.75,0,0,1-3.19,4l3.82,4.31ZM124.88,45v4h3.63a2,2,0,1,0,0-4Z" transform="translate(-16.2 -42.37)"/><path class="cls-1" d="M144.71,53h-6.6L137,55.41h-2.58l5.66-12.63h2.6l5.66,12.63h-2.6Zm-3.3-7.6-2.35,5.38h4.69Z" transform="translate(-16.2 -42.37)"/><path class="cls-1" d="M151.73,45h-4V42.79h10.39V45h-4V55.41h-2.38Z" transform="translate(-16.2 -42.37)"/><path class="cls-1" d="M170.06,55.41h-9.45V42.79h9.45v2.31H163V48h6.84v2.22H163v2.85h7.09Z" transform="translate(-16.2 -42.37)"/><path class="cls-1" d="M184.1,49c.05,3.19-1.89,6.42-6.31,6.42h-5V42.79h5A6,6,0,0,1,184.1,49Zm-8.91,4.13h2.6a3.75,3.75,0,0,0,4-4.15,3.76,3.76,0,0,0-4-3.93h-2.6Z" transform="translate(-16.2 -42.37)"/><path class="cls-2" d="M84,68.52h-5.4V61.3H84v1.32H80v1.66h3.91v1.27H80v1.63H84Z" transform="translate(-16.2 -42.37)"/><path class="cls-2" d="M95.75,61.3h1.49v.06L94.8,64.87l2.52,3.61v0H95.79l-1.85-2.71L92.1,68.52H90.57v0l2.51-3.61-2.43-3.51V61.3h1.49L93.94,64Z" transform="translate(-16.2 -42.37)"/><path class="cls-2" d="M107.3,66.39h-2v2.12H103.9V61.3h3.4A2.55,2.55,0,1,1,107.3,66.39Zm-2-1.25h2a1.28,1.28,0,1,0,0-2.56h-2Z" transform="translate(-16.2 -42.37)"/><path class="cls-2" d="M122,68.52h-5.4V61.3H122v1.32H118v1.66h3.91v1.27H118v1.63H122Z" transform="translate(-16.2 -42.37)"/><path class="cls-2" d="M135.27,68.52h-1.62l-2.1-2.41h-1.31v2.41h-1.36V61.29h3.43a2.39,2.39,0,0,1,2.6,2.39A2.14,2.14,0,0,1,133.09,66l2.19,2.46Zm-5-5.95v2.31h2.07a1.16,1.16,0,1,0,0-2.31Z" transform="translate(-16.2 -42.37)"/><path class="cls-2" d="M143.8,62.54h-2.29V61.3h5.94v1.24h-2.29v6H143.8Z" transform="translate(-16.2 -42.37)"/><path class="cls-2" d="M158.51,63a2.07,2.07,0,0,0-1.71-.8c-1,0-1.5.42-1.5,1s.74.8,1.61.91c1.5.19,2.91.58,2.91,2.3s-1.42,2.3-3,2.3-2.61-.45-3.14-1.77l1.13-.59a2.06,2.06,0,0,0,2,1.14c.86,0,1.66-.3,1.66-1.08s-.71-1-1.67-1.06c-1.47-.17-2.84-.57-2.84-2.19s1.46-2.09,2.79-2.1a2.92,2.92,0,0,1,2.84,1.43Z" transform="translate(-16.2 -42.37)"/></svg>